<svg xmlns="http://www.w3.org/2000/svg" xmlns:xlink="http://www.w3.org/1999/xlink" width="1080" zoomAndPan="magnify" viewBox="0 0 810 809.999993" height="1080" preserveAspectRatio="xMidYMid meet" version="1.0"><defs><clipPath id="c6b77d258f"><path d="M 31.109375 235.808594 L 161.6875 235.808594 L 161.6875 349.898438 L 31.109375 349.898438 Z M 31.109375 235.808594 " clip-rule="nonzero"/></clipPath><clipPath id="b89c855f93"><path d="M 96.300781 235.808594 L 161.496094 349.898438 L 31.109375 349.898438 Z M 96.300781 235.808594 " clip-rule="nonzero"/></clipPath><clipPath id="98b639da74"><path d="M 0.109375 0.808594 L 130.519531 0.808594 L 130.519531 114.898438 L 0.109375 114.898438 Z M 0.109375 0.808594 " clip-rule="nonzero"/></clipPath><clipPath id="e792f0209d"><path d="M 65.300781 0.808594 L 130.496094 114.898438 L 0.109375 114.898438 Z M 65.300781 0.808594 " clip-rule="nonzero"/></clipPath><clipPath id="4eb400ddc9"><rect x="0" width="131" y="0" height="115"/></clipPath><clipPath id="9c5e5d73c0"><path d="M 168.996094 235.808594 L 299.574219 235.808594 L 299.574219 349.898438 L 168.996094 349.898438 Z M 168.996094 235.808594 " clip-rule="nonzero"/></clipPath><clipPath id="a70bc70e17"><path d="M 234.191406 235.808594 L 299.382812 349.898438 L 168.996094 349.898438 Z M 234.191406 235.808594 " clip-rule="nonzero"/></clipPath><clipPath id="4c4e0393eb"><path d="M 0.996094 0.808594 L 131.519531 0.808594 L 131.519531 114.898438 L 0.996094 114.898438 Z M 0.996094 0.808594 " clip-rule="nonzero"/></clipPath><clipPath id="7de7e57a00"><path d="M 66.191406 0.808594 L 131.382812 114.898438 L 0.996094 114.898438 Z M 66.191406 0.808594 " clip-rule="nonzero"/></clipPath><clipPath id="d9bb6bcd27"><rect x="0" width="132" y="0" height="115"/></clipPath><clipPath id="17095e5117"><path d="M 306.882812 235.808594 L 437.460938 235.808594 L 437.460938 349.898438 L 306.882812 349.898438 Z M 306.882812 235.808594 " clip-rule="nonzero"/></clipPath><clipPath id="f375d0f4d8"><path d="M 372.078125 235.808594 L 437.269531 349.898438 L 306.882812 349.898438 Z M 372.078125 235.808594 " clip-rule="nonzero"/></clipPath><clipPath id="636fe97993"><path d="M 0.882812 0.808594 L 131.28125 0.808594 L 131.28125 114.898438 L 0.882812 114.898438 Z M 0.882812 0.808594 " clip-rule="nonzero"/></clipPath><clipPath id="d04ff7bd49"><path d="M 66.078125 0.808594 L 131.269531 114.898438 L 0.882812 114.898438 Z M 66.078125 0.808594 " clip-rule="nonzero"/></clipPath><clipPath id="883b7cccec"><rect x="0" width="132" y="0" height="115"/></clipPath><clipPath id="2a37d08fbe"><path d="M 443.644531 235.808594 L 574.222656 235.808594 L 574.222656 349.898438 L 443.644531 349.898438 Z M 443.644531 235.808594 " clip-rule="nonzero"/></clipPath><clipPath id="41faddef2f"><path d="M 508.839844 235.808594 L 574.035156 349.898438 L 443.644531 349.898438 Z M 508.839844 235.808594 " clip-rule="nonzero"/></clipPath><clipPath id="5b6bef7ca7"><path d="M 0.644531 0.808594 L 131.078125 0.808594 L 131.078125 114.898438 L 0.644531 114.898438 Z M 0.644531 0.808594 " clip-rule="nonzero"/></clipPath><clipPath id="72014aae15"><path d="M 65.839844 0.808594 L 131.035156 114.898438 L 0.644531 114.898438 Z M 65.839844 0.808594 " clip-rule="nonzero"/></clipPath><clipPath id="4afc49d803"><rect x="0" width="132" y="0" height="115"/></clipPath><clipPath id="3daca4dd6b"><path d="M 580.410156 235.808594 L 710.988281 235.808594 L 710.988281 349.898438 L 580.410156 349.898438 Z M 580.410156 235.808594 " clip-rule="nonzero"/></clipPath><clipPath id="84444b304b"><path d="M 645.601562 235.808594 L 710.796875 349.898438 L 580.410156 349.898438 Z M 645.601562 235.808594 " clip-rule="nonzero"/></clipPath><clipPath id="424f61ab5a"><path d="M 0.410156 0.808594 L 130.878906 0.808594 L 130.878906 114.898438 L 0.410156 114.898438 Z M 0.410156 0.808594 " clip-rule="nonzero"/></clipPath><clipPath id="2cafc79c58"><path d="M 65.601562 0.808594 L 130.796875 114.898438 L 0.410156 114.898438 Z M 65.601562 0.808594 " clip-rule="nonzero"/></clipPath><clipPath id="9094a399c5"><rect x="0" width="131" y="0" height="115"/></clipPath><clipPath id="c61a6f5998"><path d="M 581.335938 354.074219 L 711.917969 354.074219 L 711.917969 468.164062 L 581.335938 468.164062 Z M 581.335938 354.074219 " clip-rule="nonzero"/></clipPath><clipPath id="14d6823f50"><path d="M 646.722656 468.164062 L 581.527344 354.074219 L 711.917969 354.074219 Z M 646.722656 468.164062 " clip-rule="nonzero"/></clipPath><clipPath id="8e80f6bd5b"><path d="M 0.519531 0.0742188 L 130.917969 0.0742188 L 130.917969 114.164062 L 0.519531 114.164062 Z M 0.519531 0.0742188 " clip-rule="nonzero"/></clipPath><clipPath id="6f81860bd3"><path d="M 65.722656 114.164062 L 0.527344 0.0742188 L 130.917969 0.0742188 Z M 65.722656 114.164062 " clip-rule="nonzero"/></clipPath><clipPath id="7cf0b89d4e"><rect x="0" width="131" y="0" height="115"/></clipPath><clipPath id="72eb4f8bc1"><path d="M 443.449219 354.074219 L 574.027344 354.074219 L 574.027344 468.164062 L 443.449219 468.164062 Z M 443.449219 354.074219 " clip-rule="nonzero"/></clipPath><clipPath id="cc3a86f75f"><path d="M 508.835938 468.164062 L 443.640625 354.074219 L 574.027344 354.074219 Z M 508.835938 468.164062 " clip-rule="nonzero"/></clipPath><clipPath id="15744a3ab9"><path d="M 0.519531 0.0742188 L 131.027344 0.0742188 L 131.027344 114.164062 L 0.519531 114.164062 Z M 0.519531 0.0742188 " clip-rule="nonzero"/></clipPath><clipPath id="2cc7fad97e"><path d="M 65.835938 114.164062 L 0.640625 0.0742188 L 131.027344 0.0742188 Z M 65.835938 114.164062 " clip-rule="nonzero"/></clipPath><clipPath id="7a8098c1cf"><rect x="0" width="132" y="0" height="115"/></clipPath><clipPath id="62d5cb8148"><path d="M 305.5625 354.074219 L 436.140625 354.074219 L 436.140625 468.164062 L 305.5625 468.164062 Z M 305.5625 354.074219 " clip-rule="nonzero"/></clipPath><clipPath id="c9702f15f3"><path d="M 370.949219 468.164062 L 305.753906 354.074219 L 436.140625 354.074219 Z M 370.949219 468.164062 " clip-rule="nonzero"/></clipPath><clipPath id="3e961b971e"><path d="M 0.5625 0.0742188 L 131.140625 0.0742188 L 131.140625 114.164062 L 0.5625 114.164062 Z M 0.5625 0.0742188 " clip-rule="nonzero"/></clipPath><clipPath id="6006201722"><path d="M 65.949219 114.164062 L 0.753906 0.0742188 L 131.140625 0.0742188 Z M 65.949219 114.164062 " clip-rule="nonzero"/></clipPath><clipPath id="85e420db8e"><rect x="0" width="132" y="0" height="115"/></clipPath><clipPath id="83c3425a86"><path d="M 168.800781 354.074219 L 299.378906 354.074219 L 299.378906 468.164062 L 168.800781 468.164062 Z M 168.800781 354.074219 " clip-rule="nonzero"/></clipPath><clipPath id="8a0fe0ca88"><path d="M 234.183594 468.164062 L 168.992188 354.074219 L 299.378906 354.074219 Z M 234.183594 468.164062 " clip-rule="nonzero"/></clipPath><clipPath id="785e59866c"><path d="M 0.960938 0.0742188 L 131.378906 0.0742188 L 131.378906 114.164062 L 0.960938 114.164062 Z M 0.960938 0.0742188 " clip-rule="nonzero"/></clipPath><clipPath id="169d5ef763"><path d="M 66.183594 114.164062 L 0.992188 0.0742188 L 131.378906 0.0742188 Z M 66.183594 114.164062 " clip-rule="nonzero"/></clipPath><clipPath id="5f835b395e"><rect x="0" width="132" y="0" height="115"/></clipPath><clipPath id="f1fd058ec1"><path d="M 32.039062 354.074219 L 162.617188 354.074219 L 162.617188 468.164062 L 32.039062 468.164062 Z M 32.039062 354.074219 " clip-rule="nonzero"/></clipPath><clipPath id="2e8ef1fa3e"><path d="M 97.421875 468.164062 L 32.230469 354.074219 L 162.617188 354.074219 Z M 97.421875 468.164062 " clip-rule="nonzero"/></clipPath><clipPath id="5beb61f3d9"><path d="M 0.160156 0.0742188 L 130.617188 0.0742188 L 130.617188 114.164062 L 0.160156 114.164062 Z M 0.160156 0.0742188 " clip-rule="nonzero"/></clipPath><clipPath id="36138b872e"><path d="M 65.421875 114.164062 L 0.230469 0.0742188 L 130.617188 0.0742188 Z M 65.421875 114.164062 " clip-rule="nonzero"/></clipPath><clipPath id="7ba638299e"><rect x="0" width="131" y="0" height="115"/></clipPath><clipPath id="73c041fda4"><path d="M 100.050781 354.082031 L 230.632812 354.082031 L 230.632812 468.171875 L 100.050781 468.171875 Z M 100.050781 354.082031 " clip-rule="nonzero"/></clipPath><clipPath id="43e8aee3b6"><path d="M 165.246094 354.082031 L 230.441406 468.171875 L 100.050781 468.171875 Z M 165.246094 354.082031 " clip-rule="nonzero"/></clipPath><clipPath id="29749cf372"><path d="M 0.0507812 0.0820312 L 130.632812 0.0820312 L 130.632812 114.171875 L 0.0507812 114.171875 Z M 0.0507812 0.0820312 " clip-rule="nonzero"/></clipPath><clipPath id="2280d82e6c"><path d="M 65.246094 0.0820312 L 130.441406 114.171875 L 0.0507812 114.171875 Z M 65.246094 0.0820312 " clip-rule="nonzero"/></clipPath><clipPath id="bc38b32b67"><rect x="0" width="131" y="0" height="115"/></clipPath><clipPath id="14d2981f3f"><path d="M 237.941406 354.082031 L 368.519531 354.082031 L 368.519531 468.171875 L 237.941406 468.171875 Z M 237.941406 354.082031 " clip-rule="nonzero"/></clipPath><clipPath id="05358b39cd"><path d="M 303.132812 354.082031 L 368.328125 468.171875 L 237.941406 468.171875 Z M 303.132812 354.082031 " clip-rule="nonzero"/></clipPath><clipPath id="e228759888"><path d="M 0.941406 0.0820312 L 131.398438 0.0820312 L 131.398438 114.171875 L 0.941406 114.171875 Z M 0.941406 0.0820312 " clip-rule="nonzero"/></clipPath><clipPath id="df80cc347e"><path d="M 66.132812 0.0820312 L 131.328125 114.171875 L 0.941406 114.171875 Z M 66.132812 0.0820312 " clip-rule="nonzero"/></clipPath><clipPath id="c5c56aa191"><rect x="0" width="132" y="0" height="115"/></clipPath><clipPath id="7c5c878982"><path d="M 375.828125 354.082031 L 506.40625 354.082031 L 506.40625 468.171875 L 375.828125 468.171875 Z M 375.828125 354.082031 " clip-rule="nonzero"/></clipPath><clipPath id="af685648cd"><path d="M 441.019531 354.082031 L 506.214844 468.171875 L 375.828125 468.171875 Z M 441.019531 354.082031 " clip-rule="nonzero"/></clipPath><clipPath id="b406a5e188"><path d="M 0.828125 0.0820312 L 131.398438 0.0820312 L 131.398438 114.171875 L 0.828125 114.171875 Z M 0.828125 0.0820312 " clip-rule="nonzero"/></clipPath><clipPath id="bbd1842790"><path d="M 66.019531 0.0820312 L 131.214844 114.171875 L 0.828125 114.171875 Z M 66.019531 0.0820312 " clip-rule="nonzero"/></clipPath><clipPath id="69b67ce492"><rect x="0" width="132" y="0" height="115"/></clipPath><clipPath id="a5c1cc694f"><path d="M 512.589844 354.082031 L 643 354.082031 L 643 468.171875 L 512.589844 468.171875 Z M 512.589844 354.082031 " clip-rule="nonzero"/></clipPath><clipPath id="82a32281ce"><path d="M 577.785156 354.082031 L 642.976562 468.171875 L 512.589844 468.171875 Z M 577.785156 354.082031 " clip-rule="nonzero"/></clipPath><clipPath id="8d4471cfb8"><path d="M 0.589844 0.0820312 L 131 0.0820312 L 131 114.171875 L 0.589844 114.171875 Z M 0.589844 0.0820312 " clip-rule="nonzero"/></clipPath><clipPath id="754571ba2c"><path d="M 65.785156 0.0820312 L 130.976562 114.171875 L 0.589844 114.171875 Z M 65.785156 0.0820312 " clip-rule="nonzero"/></clipPath><clipPath id="d3d0fb82a4"><rect x="0" width="131" y="0" height="115"/></clipPath><clipPath id="6154350aab"><path d="M 649.351562 354.082031 L 779.929688 354.082031 L 779.929688 468.171875 L 649.351562 468.171875 Z M 649.351562 354.082031 " clip-rule="nonzero"/></clipPath><clipPath id="85519e8786"><path d="M 714.546875 354.082031 L 779.738281 468.171875 L 649.351562 468.171875 Z M 714.546875 354.082031 " clip-rule="nonzero"/></clipPath><clipPath id="731dcc8c27"><path d="M 0.351562 0.0820312 L 130.761719 0.0820312 L 130.761719 114.171875 L 0.351562 114.171875 Z M 0.351562 0.0820312 " clip-rule="nonzero"/></clipPath><clipPath id="dda1785699"><path d="M 65.546875 0.0820312 L 130.738281 114.171875 L 0.351562 114.171875 Z M 65.546875 0.0820312 " clip-rule="nonzero"/></clipPath><clipPath id="dea7cfefe7"><rect x="0" width="131" y="0" height="115"/></clipPath><clipPath id="d9a098143f"><path d="M 649.15625 471.914062 L 779.734375 471.914062 L 779.734375 586.003906 L 649.15625 586.003906 Z M 649.15625 471.914062 " clip-rule="nonzero"/></clipPath><clipPath id="3c1918a615"><path d="M 714.542969 586.003906 L 649.347656 471.914062 L 779.734375 471.914062 Z M 714.542969 586.003906 " clip-rule="nonzero"/></clipPath><clipPath id="d3013555fd"><path d="M 0.199219 0.914062 L 130.734375 0.914062 L 130.734375 115.003906 L 0.199219 115.003906 Z M 0.199219 0.914062 " clip-rule="nonzero"/></clipPath><clipPath id="4d457177e4"><path d="M 65.542969 115.003906 L 0.347656 0.914062 L 130.734375 0.914062 Z M 65.542969 115.003906 " clip-rule="nonzero"/></clipPath><clipPath id="7c44a37f4c"><rect x="0" width="131" y="0" height="116"/></clipPath><clipPath id="8a307a9b61"><path d="M 511.269531 471.914062 L 641.847656 471.914062 L 641.847656 586.003906 L 511.269531 586.003906 Z M 511.269531 471.914062 " clip-rule="nonzero"/></clipPath><clipPath id="385c9733a3"><path d="M 576.652344 586.003906 L 511.460938 471.914062 L 641.847656 471.914062 Z M 576.652344 586.003906 " clip-rule="nonzero"/></clipPath><clipPath id="b8e228a6c7"><path d="M 0.441406 0.914062 L 130.847656 0.914062 L 130.847656 115.003906 L 0.441406 115.003906 Z M 0.441406 0.914062 " clip-rule="nonzero"/></clipPath><clipPath id="2587e51bd1"><path d="M 65.652344 115.003906 L 0.460938 0.914062 L 130.847656 0.914062 Z M 65.652344 115.003906 " clip-rule="nonzero"/></clipPath><clipPath id="00962abf62"><rect x="0" width="131" y="0" height="116"/></clipPath><clipPath id="fba2f44167"><path d="M 373.382812 471.914062 L 503.960938 471.914062 L 503.960938 586.003906 L 373.382812 586.003906 Z M 373.382812 471.914062 " clip-rule="nonzero"/></clipPath><clipPath id="b4abe4eb3b"><path d="M 438.765625 586.003906 L 373.574219 471.914062 L 503.960938 471.914062 Z M 438.765625 586.003906 " clip-rule="nonzero"/></clipPath><clipPath id="14b22a82c8"><path d="M 0.441406 0.914062 L 130.960938 0.914062 L 130.960938 115.003906 L 0.441406 115.003906 Z M 0.441406 0.914062 " clip-rule="nonzero"/></clipPath><clipPath id="adb3830bb2"><path d="M 65.765625 115.003906 L 0.574219 0.914062 L 130.960938 0.914062 Z M 65.765625 115.003906 " clip-rule="nonzero"/></clipPath><clipPath id="213a4bd131"><rect x="0" width="131" y="0" height="116"/></clipPath><clipPath id="bed2dc0d94"><path d="M 236.621094 471.914062 L 367.199219 471.914062 L 367.199219 586.003906 L 236.621094 586.003906 Z M 236.621094 471.914062 " clip-rule="nonzero"/></clipPath><clipPath id="e9e4a39956"><path d="M 302.003906 586.003906 L 236.808594 471.914062 L 367.199219 471.914062 Z M 302.003906 586.003906 " clip-rule="nonzero"/></clipPath><clipPath id="20a25fdc3c"><path d="M 0.640625 0.914062 L 131.199219 0.914062 L 131.199219 115.003906 L 0.640625 115.003906 Z M 0.640625 0.914062 " clip-rule="nonzero"/></clipPath><clipPath id="522c8b181d"><path d="M 66.003906 115.003906 L 0.808594 0.914062 L 131.199219 0.914062 Z M 66.003906 115.003906 " clip-rule="nonzero"/></clipPath><clipPath id="9cf7309ab0"><rect x="0" width="132" y="0" height="116"/></clipPath><clipPath id="af57040bae"><path d="M 100 471.914062 L 230.433594 471.914062 L 230.433594 586.003906 L 100 586.003906 Z M 100 471.914062 " clip-rule="nonzero"/></clipPath><clipPath id="66e66a00bd"><path d="M 165.242188 586.003906 L 100.046875 471.914062 L 230.433594 471.914062 Z M 165.242188 586.003906 " clip-rule="nonzero"/></clipPath><clipPath id="04a211249e"><path d="M 0 0.914062 L 130.433594 0.914062 L 130.433594 115.003906 L 0 115.003906 Z M 0 0.914062 " clip-rule="nonzero"/></clipPath><clipPath id="273d652434"><path d="M 65.242188 115.003906 L 0.046875 0.914062 L 130.433594 0.914062 Z M 65.242188 115.003906 " clip-rule="nonzero"/></clipPath><clipPath id="63a576add3"><rect x="0" width="131" y="0" height="116"/></clipPath></defs><g clip-path="url(#c6b77d258f)"><g clip-path="url(#b89c855f93)"><g transform="matrix(1, 0, 0, 1, 31, 235)"><g clip-path="url(#4eb400ddc9)"><g clip-path="url(#98b639da74)"><g clip-path="url(#e792f0209d)"><path fill="#ffffff" d="M 0.109375 0.808594 L 130.6875 0.808594 L 130.6875 114.898438 L 0.109375 114.898438 Z M 0.109375 0.808594 " fill-opacity="1" fill-rule="nonzero"/></g></g></g></g></g></g><g clip-path="url(#9c5e5d73c0)"><g clip-path="url(#a70bc70e17)"><g transform="matrix(1, 0, 0, 1, 168, 235)"><g clip-path="url(#d9bb6bcd27)"><g clip-path="url(#4c4e0393eb)"><g clip-path="url(#7de7e57a00)"><path fill="#ffffff" d="M 0.996094 0.808594 L 131.574219 0.808594 L 131.574219 114.898438 L 0.996094 114.898438 Z M 0.996094 0.808594 " fill-opacity="1" fill-rule="nonzero"/></g></g></g></g></g></g><g clip-path="url(#17095e5117)"><g clip-path="url(#f375d0f4d8)"><g transform="matrix(1, 0, 0, 1, 306, 235)"><g clip-path="url(#883b7cccec)"><g clip-path="url(#636fe97993)"><g clip-path="url(#d04ff7bd49)"><path fill="#ffffff" d="M 0.882812 0.808594 L 131.460938 0.808594 L 131.460938 114.898438 L 0.882812 114.898438 Z M 0.882812 0.808594 " fill-opacity="1" fill-rule="nonzero"/></g></g></g></g></g></g><g clip-path="url(#2a37d08fbe)"><g clip-path="url(#41faddef2f)"><g transform="matrix(1, 0, 0, 1, 443, 235)"><g clip-path="url(#4afc49d803)"><g clip-path="url(#5b6bef7ca7)"><g clip-path="url(#72014aae15)"><path fill="#ffffff" d="M 0.644531 0.808594 L 131.222656 0.808594 L 131.222656 114.898438 L 0.644531 114.898438 Z M 0.644531 0.808594 " fill-opacity="1" fill-rule="nonzero"/></g></g></g></g></g></g><g clip-path="url(#3daca4dd6b)"><g clip-path="url(#84444b304b)"><g transform="matrix(1, 0, 0, 1, 580, 235)"><g clip-path="url(#9094a399c5)"><g clip-path="url(#424f61ab5a)"><g clip-path="url(#2cafc79c58)"><path fill="#ffffff" d="M 0.410156 0.808594 L 130.988281 0.808594 L 130.988281 114.898438 L 0.410156 114.898438 Z M 0.410156 0.808594 " fill-opacity="1" fill-rule="nonzero"/></g></g></g></g></g></g><g clip-path="url(#c61a6f5998)"><g clip-path="url(#14d6823f50)"><g transform="matrix(1, 0, 0, 1, 581, 354)"><g clip-path="url(#7cf0b89d4e)"><g clip-path="url(#8e80f6bd5b)"><g clip-path="url(#6f81860bd3)"><path fill="#ffffff" d="M 130.917969 114.164062 L 0.335938 114.164062 L 0.335938 0.0742188 L 130.917969 0.0742188 Z M 130.917969 114.164062 " fill-opacity="1" fill-rule="nonzero"/></g></g></g></g></g></g><g clip-path="url(#72eb4f8bc1)"><g clip-path="url(#cc3a86f75f)"><g transform="matrix(1, 0, 0, 1, 443, 354)"><g clip-path="url(#7a8098c1cf)"><g clip-path="url(#15744a3ab9)"><g clip-path="url(#2cc7fad97e)"><path fill="#ffffff" d="M 131.027344 114.164062 L 0.449219 114.164062 L 0.449219 0.0742188 L 131.027344 0.0742188 Z M 131.027344 114.164062 " fill-opacity="1" fill-rule="nonzero"/></g></g></g></g></g></g><g clip-path="url(#62d5cb8148)"><g clip-path="url(#c9702f15f3)"><g transform="matrix(1, 0, 0, 1, 305, 354)"><g clip-path="url(#85e420db8e)"><g clip-path="url(#3e961b971e)"><g clip-path="url(#6006201722)"><path fill="#ffffff" d="M 131.140625 114.164062 L 0.5625 114.164062 L 0.5625 0.0742188 L 131.140625 0.0742188 Z M 131.140625 114.164062 " fill-opacity="1" fill-rule="nonzero"/></g></g></g></g></g></g><g clip-path="url(#83c3425a86)"><g clip-path="url(#8a0fe0ca88)"><g transform="matrix(1, 0, 0, 1, 168, 354)"><g clip-path="url(#5f835b395e)"><g clip-path="url(#785e59866c)"><g clip-path="url(#169d5ef763)"><path fill="#ffffff" d="M 131.378906 114.164062 L 0.800781 114.164062 L 0.800781 0.0742188 L 131.378906 0.0742188 Z M 131.378906 114.164062 " fill-opacity="1" fill-rule="nonzero"/></g></g></g></g></g></g><g clip-path="url(#f1fd058ec1)"><g clip-path="url(#2e8ef1fa3e)"><g transform="matrix(1, 0, 0, 1, 32, 354)"><g clip-path="url(#7ba638299e)"><g clip-path="url(#5beb61f3d9)"><g clip-path="url(#36138b872e)"><path fill="#ffffff" d="M 130.617188 114.164062 L 0.0390625 114.164062 L 0.0390625 0.0742188 L 130.617188 0.0742188 Z M 130.617188 114.164062 " fill-opacity="1" fill-rule="nonzero"/></g></g></g></g></g></g><g clip-path="url(#73c041fda4)"><g clip-path="url(#43e8aee3b6)"><g transform="matrix(1, 0, 0, 1, 100, 354)"><g clip-path="url(#bc38b32b67)"><g clip-path="url(#29749cf372)"><g clip-path="url(#2280d82e6c)"><path fill="#ffffff" d="M 0.0507812 0.0820312 L 130.632812 0.0820312 L 130.632812 114.171875 L 0.0507812 114.171875 Z M 0.0507812 0.0820312 " fill-opacity="1" fill-rule="nonzero"/></g></g></g></g></g></g><g clip-path="url(#14d2981f3f)"><g clip-path="url(#05358b39cd)"><g transform="matrix(1, 0, 0, 1, 237, 354)"><g clip-path="url(#c5c56aa191)"><g clip-path="url(#e228759888)"><g clip-path="url(#df80cc347e)"><path fill="#ffffff" d="M 0.941406 0.0820312 L 131.519531 0.0820312 L 131.519531 114.171875 L 0.941406 114.171875 Z M 0.941406 0.0820312 " fill-opacity="1" fill-rule="nonzero"/></g></g></g></g></g></g><g clip-path="url(#7c5c878982)"><g clip-path="url(#af685648cd)"><g transform="matrix(1, 0, 0, 1, 375, 354)"><g clip-path="url(#69b67ce492)"><g clip-path="url(#b406a5e188)"><g clip-path="url(#bbd1842790)"><path fill="#ffffff" d="M 0.828125 0.0820312 L 131.40625 0.0820312 L 131.40625 114.171875 L 0.828125 114.171875 Z M 0.828125 0.0820312 " fill-opacity="1" fill-rule="nonzero"/></g></g></g></g></g></g><g clip-path="url(#a5c1cc694f)"><g clip-path="url(#82a32281ce)"><g transform="matrix(1, 0, 0, 1, 512, 354)"><g clip-path="url(#d3d0fb82a4)"><g clip-path="url(#8d4471cfb8)"><g clip-path="url(#754571ba2c)"><path fill="#ffffff" d="M 0.589844 0.0820312 L 131.167969 0.0820312 L 131.167969 114.171875 L 0.589844 114.171875 Z M 0.589844 0.0820312 " fill-opacity="1" fill-rule="nonzero"/></g></g></g></g></g></g><g clip-path="url(#6154350aab)"><g clip-path="url(#85519e8786)"><g transform="matrix(1, 0, 0, 1, 649, 354)"><g clip-path="url(#dea7cfefe7)"><g clip-path="url(#731dcc8c27)"><g clip-path="url(#dda1785699)"><path fill="#ffffff" d="M 0.351562 0.0820312 L 130.929688 0.0820312 L 130.929688 114.171875 L 0.351562 114.171875 Z M 0.351562 0.0820312 " fill-opacity="1" fill-rule="nonzero"/></g></g></g></g></g></g><g clip-path="url(#d9a098143f)"><g clip-path="url(#3c1918a615)"><g transform="matrix(1, 0, 0, 1, 649, 471)"><g clip-path="url(#7c44a37f4c)"><g clip-path="url(#d3013555fd)"><g clip-path="url(#4d457177e4)"><path fill="#ffffff" d="M 130.734375 115.003906 L 0.15625 115.003906 L 0.15625 0.914062 L 130.734375 0.914062 Z M 130.734375 115.003906 " fill-opacity="1" fill-rule="nonzero"/></g></g></g></g></g></g><g clip-path="url(#8a307a9b61)"><g clip-path="url(#385c9733a3)"><g transform="matrix(1, 0, 0, 1, 511, 471)"><g clip-path="url(#00962abf62)"><g clip-path="url(#b8e228a6c7)"><g clip-path="url(#2587e51bd1)"><path fill="#ffffff" d="M 130.847656 115.003906 L 0.269531 115.003906 L 0.269531 0.914062 L 130.847656 0.914062 Z M 130.847656 115.003906 " fill-opacity="1" fill-rule="nonzero"/></g></g></g></g></g></g><g clip-path="url(#fba2f44167)"><g clip-path="url(#b4abe4eb3b)"><g transform="matrix(1, 0, 0, 1, 373, 471)"><g clip-path="url(#213a4bd131)"><g clip-path="url(#14b22a82c8)"><g clip-path="url(#adb3830bb2)"><path fill="#ffffff" d="M 130.960938 115.003906 L 0.382812 115.003906 L 0.382812 0.914062 L 130.960938 0.914062 Z M 130.960938 115.003906 " fill-opacity="1" fill-rule="nonzero"/></g></g></g></g></g></g><g clip-path="url(#bed2dc0d94)"><g clip-path="url(#e9e4a39956)"><g transform="matrix(1, 0, 0, 1, 236, 471)"><g clip-path="url(#9cf7309ab0)"><g clip-path="url(#20a25fdc3c)"><g clip-path="url(#522c8b181d)"><path fill="#ffffff" d="M 131.199219 115.003906 L 0.621094 115.003906 L 0.621094 0.914062 L 131.199219 0.914062 Z M 131.199219 115.003906 " fill-opacity="1" fill-rule="nonzero"/></g></g></g></g></g></g><g clip-path="url(#af57040bae)"><g clip-path="url(#66e66a00bd)"><g transform="matrix(1, 0, 0, 1, 100, 471)"><g clip-path="url(#63a576add3)"><g clip-path="url(#04a211249e)"><g clip-path="url(#273d652434)"><path fill="#ffffff" d="M 130.433594 115.003906 L -0.144531 115.003906 L -0.144531 0.914062 L 130.433594 0.914062 Z M 130.433594 115.003906 " fill-opacity="1" fill-rule="nonzero"/></g></g></g></g></g></g></svg>